<svg xmlns="http://www.w3.org/2000/svg" viewBox="0 0 477.78789 673.64574">
  <defs>
    <linearGradient id="lg" x1="90.63618" y1="382.72756" x2="281.88709" y2="328.90245" gradientUnits="userSpaceOnUse">
      <stop offset="0" stop-color="#d0d2e8" stop-opacity=".37912"/>
      <stop offset=".05892" stop-color="#e0e1f0" stop-opacity=".22119"/>
      <stop offset=".11804" stop-color="#f0f0f8" stop-opacity=".09961"/>
      <stop offset=".17224" stop-color="#fafaff" stop-opacity=".02566"/>
      <stop offset=".21649" stop-color="#fff" stop-opacity="0"/>
      <stop offset=".27908" stop-color="#f6f6ff" stop-opacity="0"/>
      <stop offset="1" stop-color="#9a8ec0" stop-opacity=".6"/>
    </linearGradient>
    <linearGradient id="lg1" x1="20.1814" y1="528.74105" x2="343.12853" y2="499.72925" gradientUnits="userSpaceOnUse">
      <stop offset="0" stop-color="#3a2850"/>
      <stop offset="0" stop-color="#5a4878" stop-opacity=".94948"/>
      <stop offset=".71323" stop-color="#fff" stop-opacity="0"/>
    </linearGradient>
    <radialGradient id="rg" cx="-3.06408" cy="-.13" fx="-3.06408" fy="-.13" r="722.46574" gradientUnits="userSpaceOnUse">
      <stop offset="0" stop-color="#9070d0"/>
      <stop offset="1" stop-color="#e050a8"/>
    </radialGradient>
  </defs>
  <path fill="url(#lg)" d="M305.81457,442.82443l-52.48882-218.27585c-30.51779,0-245.30918,34.10192-175.33317,140.13737.00264.0033.00545.00668.00809.00998,41.13345,51.39107,104.37971,84.31478,175.32508,84.31478,18.07688,0,35.64899-2.15136,52.48882-6.18629Z"/>
  <path fill="url(#lg1)" d="M253.32575,449.01072c-70.94537,0-134.19163-32.92371-175.32508-84.31478-.00264-.0033-.00545-.00668-.00809-.00998-1.47874-2.24081-2.81984-4.44679-4.04872-6.62372l179.38188,315.58351,52.48882-230.82131c-16.83983,4.03494-34.41194,6.18629-52.48882,6.18629Z"/>
  <path fill="url(#rg)" d="M253.32575,0H0v673.5593h253.32575L73.94098,357.97076l.00017.00008c-56.91135-100.83131,149.5122-133.5087,179.38461-133.5087l52.48882,218.27585c98.64406-23.63569,171.97332-112.38571,171.97332-218.27585C477.78789,100.49512,377.29277,0,253.32575,0Z"/>
</svg>
